<?xml version="1.0" standalone="no"?>
<!DOCTYPE svg PUBLIC "-//W3C//DTD SVG 20010904//EN"
 "http://www.w3.org/TR/2001/REC-SVG-20010904/DTD/svg10.dtd">
<svg version="1.0" xmlns="http://www.w3.org/2000/svg"
 width="1024.000000pt" height="1024.000000pt" viewBox="0 0 1024.000000 1024.000000"
 preserveAspectRatio="xMidYMid meet">

<g transform="translate(0.000000,1024.000000) scale(0.100000,-0.100000)"
fill="#000000" stroke="none">
<path d="M2170 7786 l0 -104 63 -4 c168 -10 321 -159 357 -347 7 -35 10 -768
10 -2155 0 -2288 3 -2151 -55 -2266 -64 -126 -205 -220 -332 -220 l-43 0 0
-105 0 -105 1723 0 1722 0 99 408 c122 497 205 853 206 870 0 10 -28 12 -121
10 l-122 -3 -42 -105 c-172 -427 -464 -671 -890 -745 -153 -26 -463 -38 -833
-30 l-342 7 2 2252 3 2251 32 67 c63 133 173 208 317 216 l81 4 0 104 1 104
-918 0 -918 0 0 -104z"/>
<path d="M6540 7807 l0 -82 48 -17 c102 -37 158 -128 150 -245 -6 -88 -19
-112 -192 -356 -191 -271 -545 -779 -587 -844 -19 -29 -37 -52 -40 -52 -3 -1
-10 8 -15 18 -5 11 -121 202 -259 425 l-250 406 -687 0 -688 0 0 -84 0 -85 58
-11 c178 -37 349 -158 499 -353 44 -57 298 -445 600 -917 80 -124 148 -229
153 -234 5 -5 -28 -58 -73 -120 -45 -61 -185 -255 -312 -431 -127 -176 -320
-444 -430 -595 -371 -514 -406 -552 -706 -742 l-104 -67 3 -46 4 -45 589 0
589 0 0 68 0 67 -50 23 c-88 40 -112 105 -80 217 16 56 128 226 384 585 93
129 234 326 313 438 80 111 148 202 151 202 4 0 134 -197 288 -438 155 -240
355 -549 443 -687 89 -137 181 -288 204 -334 40 -81 42 -88 42 -177 0 -87 -2
-95 -30 -135 -38 -54 -86 -87 -137 -95 l-38 -7 0 -88 0 -89 960 0 960 0 0 93
0 92 -63 18 c-144 42 -319 156 -442 289 -81 88 -135 164 -382 543 -104 160
-301 461 -438 670 -137 209 -369 566 -517 794 l-268 413 47 67 c26 36 106 147
178 246 72 99 201 279 285 400 217 309 544 760 599 824 157 186 325 302 502
348 l69 17 0 98 0 98 -665 0 -665 0 0 -83z"/>
</g>
</svg>
